<svg width="534" height="130" viewBox="0 0 534 130" fill="none" xmlns="http://www.w3.org/2000/svg">
<path fill-rule="evenodd" clip-rule="evenodd" d="M93.2285 52.4343C91.8505 52.2223 90.4725 52.1184 89.2005 52.1184C79.6605 52.1184 75.3145 57.6283 75.3145 67.2743V91.8624H63.0225V40.2464H74.9985V48.5144C77.4365 42.8964 83.1585 39.6104 89.9425 39.6104C91.4265 39.6104 92.6985 39.8224 93.2285 39.9284V52.4343Z" fill="white"/>
<path fill-rule="evenodd" clip-rule="evenodd" d="M140.396 66.0002C140.396 55.2962 133.612 49.7862 125.982 49.7862C118.456 49.7862 111.566 55.2962 111.566 66.0002C111.566 76.7062 118.456 82.4303 125.982 82.4303C133.612 82.4303 140.396 76.8143 140.396 66.0002ZM152.796 66.0002C152.796 81.9002 141.456 93.4523 125.982 93.4523C110.612 93.4523 99.2725 81.9002 99.2725 66.0002C99.2725 50.2083 110.612 38.6562 125.982 38.6562C141.456 38.6562 152.796 50.2083 152.796 66.0002Z" fill="white"/>
<path fill-rule="evenodd" clip-rule="evenodd" d="M190.958 49.9981C182.904 49.9981 177.074 56.3561 177.074 66.0001C177.074 75.8581 182.904 82.2181 190.958 82.2181C199.12 82.2181 204.844 75.8581 204.844 66.0001C204.844 56.3561 199.226 49.9981 190.958 49.9981ZM164.992 112V40.2461H176.862V47.2421C179.406 42.7901 185.342 39.0801 193.29 39.0801C208.552 39.0801 217.138 50.7401 217.138 66.0001C217.138 81.4761 207.704 93.1341 192.866 93.1341C185.446 93.1341 179.83 89.9541 177.18 86.0341V112H164.992Z" fill="white"/>
<path fill-rule="evenodd" clip-rule="evenodd" d="M266.428 66.0002C266.428 55.2962 259.644 49.7862 252.014 49.7862C244.488 49.7862 237.6 55.2962 237.6 66.0002C237.6 76.7062 244.488 82.4303 252.014 82.4303C259.644 82.4303 266.428 76.8143 266.428 66.0002ZM278.828 66.0002C278.828 81.9002 267.488 93.4523 252.014 93.4523C236.646 93.4523 225.306 81.9002 225.306 66.0002C225.306 50.2083 236.646 38.6562 252.014 38.6562C267.488 38.6562 278.828 50.2083 278.828 66.0002Z" fill="white"/>
<path fill-rule="evenodd" clip-rule="evenodd" d="M368.506 70.4542V68.1223L355.044 70.1363C351.23 70.7703 348.156 72.8923 348.156 77.1302C348.156 80.6283 350.806 83.8083 355.682 83.8083C362.57 83.8083 368.506 80.5222 368.506 70.4542ZM351.44 62.2922L364.688 60.2782C367.658 59.8542 368.506 58.3703 368.506 56.5683C368.506 52.2222 365.538 48.7262 358.756 48.7262C352.288 48.7262 348.684 52.8602 348.156 58.0522L336.922 55.5082C337.874 46.6062 345.93 38.6562 358.648 38.6562C374.546 38.6562 380.588 47.6662 380.588 57.9462V83.5963C380.588 88.2583 381.118 91.3343 381.224 91.8623H369.776C369.672 91.5443 369.248 89.4243 369.248 85.2923C366.81 89.2143 361.722 93.4523 353.35 93.4523C342.538 93.4523 335.86 86.0343 335.86 77.8723C335.86 68.6523 342.644 63.5642 351.44 62.2922Z" fill="white"/>
<path fill-rule="evenodd" clip-rule="evenodd" d="M395.752 91.8618H408.046V20.2998H395.752V91.8618Z" fill="white"/>
<path fill-rule="evenodd" clip-rule="evenodd" d="M458.182 60.3842C457.968 54.3422 453.94 48.9382 445.462 48.9382C437.726 48.9382 433.272 54.8742 432.85 60.3842H458.182ZM469.944 77.1302C467.19 86.1403 459.028 93.4523 446.628 93.4523C432.638 93.4523 420.238 83.2782 420.238 65.7882C420.238 49.4662 432.32 38.6562 445.356 38.6562C461.256 38.6562 470.582 49.1502 470.582 65.4722C470.582 67.4862 470.368 69.1803 470.264 69.3943H432.532C432.85 77.2383 438.998 82.8542 446.628 82.8542C454.048 82.8542 457.862 78.9323 459.558 73.8443L469.944 77.1302Z" fill="white"/>
<path fill-rule="evenodd" clip-rule="evenodd" d="M29.0775 18.7544L23.8695 18.7324L23.8195 30.2064L27.4035 30.2204C33.9995 30.2504 37.9995 33.9964 37.9735 40.0204C37.9475 45.8524 33.9155 49.6584 27.3175 49.6284L23.7355 49.6144L23.6855 60.9904L28.8935 61.0147C42.2775 61.0724 51.2095 52.3144 51.2638 39.9824C51.3155 27.7444 42.4635 18.8144 29.0775 18.7544Z" fill="white"/>
<path fill-rule="evenodd" clip-rule="evenodd" d="M0.438 18.6641L0.304 49.5461L0.186 49.5441L0.136 60.9221H0.158L0.074 80.3301H0.05L0 91.8041L13.312 91.8621L13.632 18.7221L0.438 18.6641Z" fill="white"/>
<path fill-rule="evenodd" clip-rule="evenodd" d="M511.542 20.2998L511.532 31.7878C515.61 32.0118 519.834 35.6358 519.858 41.2818L533.148 41.3178C533.096 29.2218 524.5 20.5718 511.542 20.2998Z" fill="white"/>
<path fill-rule="evenodd" clip-rule="evenodd" d="M492.558 41.5745C492.534 36.1225 495.808 32.5385 501.318 31.8845L501.308 20.3145C488.006 20.4365 479.216 29.3425 479.268 41.5365C479.322 53.7785 488.122 62.4925 501.344 62.5645L501.334 51.0805C495.858 50.4385 492.582 46.8305 492.558 41.5745Z" fill="white"/>
<path fill-rule="evenodd" clip-rule="evenodd" d="M501.318 93.4516L501.328 81.9636C497.248 81.7396 493.024 78.1156 493.002 72.4696L479.71 72.4316C479.764 84.5296 488.358 93.1796 501.318 93.4516Z" fill="white"/>
<path fill-rule="evenodd" clip-rule="evenodd" d="M520.3 72.1785C520.326 77.6285 517.052 81.2145 511.54 81.8685L511.55 93.4385C524.854 93.3165 533.644 84.4105 533.592 72.2165C533.536 59.9745 524.736 51.2605 511.518 51.1885L511.526 62.6725C517.002 63.3145 520.278 66.9225 520.3 72.1785Z" fill="white"/>
<path fill-rule="evenodd" clip-rule="evenodd" d="M306.442 93.4523C293.856 93.4523 286.834 85.8783 286.788 75.6083L298.07 75.6423C298.092 80.4323 302.372 83.7002 306.606 83.7002L307.664 83.7023C312.752 83.7023 315.4 80.9463 315.4 77.7663C315.4 75.0103 313.492 72.8923 309.358 72.0443L301.728 70.3463C292.612 68.3343 287.844 62.3983 287.844 55.2963C287.844 46.2883 296.11 38.6562 306.816 38.6562H308.816C319.632 38.8843 326.806 46.1043 326.85 56.2003L315.758 56.1682C315.736 51.4562 312.062 48.4342 307.636 48.2843L306.816 48.3022C302.47 48.3022 299.396 51.0562 299.396 54.2362C299.396 56.9923 301.41 59.0062 304.59 59.6422L312.434 61.2322C322.184 63.3522 327.27 69.2882 327.27 76.9183C327.27 84.7603 320.912 93.4523 307.768 93.4523H306.442Z" fill="white"/>
</svg>
