<svg width="688" height="885" viewBox="0 0 688 885" fill="none" xmlns="http://www.w3.org/2000/svg">
<path d="M38.0446 180.775L37.4706 173.117C37.2245 170.519 36.134 168.052 34.199 165.715C32.3638 163.369 27.7313 156.499 20.3014 145.106C12.8715 133.713 9.08563 127.267 8.94369 125.768C8.79229 124.17 9.30923 122.71 10.4945 121.388C11.6703 119.966 12.8577 119.198 14.0566 119.085C15.3555 118.962 16.963 119.969 18.8791 122.106C20.8951 124.233 24.9145 129.951 30.9373 139.26C37.06 148.559 40.5683 153.67 41.4622 154.594C49.445 136.701 56.0026 123.983 61.135 116.44C62.4107 115.009 63.4482 114.255 64.2475 114.18C65.1467 114.095 65.8056 114.133 66.2242 114.295C68.7166 115.067 70.0433 116.302 70.2042 118.001C70.3556 119.599 70.0884 121.036 69.4027 122.31C68.717 123.585 66.817 126.94 63.7028 132.376C59.1078 140.271 55.2216 148.2 52.0442 156.162C48.9573 164.015 47.4943 168.791 47.6552 170.489L50.2527 197.915L51.8378 209.861C52.046 212.059 51.5932 213.665 50.4794 214.678C49.3562 215.59 47.8954 216.132 46.097 216.302C44.3985 216.463 43.1597 215.623 42.3804 213.781C41.6011 211.94 41.0149 209.475 40.6216 206.387C40.2284 203.3 39.7479 198.758 39.1801 192.764L38.0446 180.775ZM84.4614 160.955C82.9775 160.188 82.1551 158.956 81.9942 157.257C81.8334 155.559 82.2362 153.958 83.2027 152.455C81.8568 142.502 80.6587 131.98 79.6084 120.89C79.9807 118.436 80.7143 116.602 81.8092 115.389C83.0039 114.167 84.786 113.293 87.1555 112.766C100.4 112.116 114.716 111.063 130.102 109.606C133.975 110.046 136.029 111.514 136.266 114.012C136.663 118.208 132.799 121.044 124.672 122.519C122.484 122.827 120.09 123.104 117.493 123.351L107.751 124.273C105.853 124.453 100.57 124.55 91.902 124.565C93.0848 137.053 94.0984 145.627 94.9428 150.285C100.248 149.883 110.443 148.968 125.53 147.539C129.193 147.898 131.147 149.376 131.393 151.974C131.63 154.471 130.366 156.557 127.601 158.23C127.32 158.458 126.789 158.71 126.009 158.986L100.04 160.992C98.441 161.143 97.1516 161.366 96.1714 161.66L99.2122 187.38C99.7611 193.175 100.004 197.336 99.9407 199.862L134.667 196.119C137.911 196.316 139.638 197.513 139.846 199.712C139.988 201.21 139.43 202.775 138.174 204.406C137.017 206.028 135.558 207.124 133.798 207.694L95.4886 211.927C93.1907 212.144 91.5543 211.896 90.5794 211.182C89.595 210.368 89.0082 208.962 88.819 206.964C88.9536 204.128 88.7276 199.613 88.141 193.419L87.1474 182.928L84.4614 160.955ZM176.861 104.572C179.359 104.336 181.561 105.236 183.468 107.273C185.374 109.31 188.003 113.648 191.353 120.287C199.19 135.976 207.752 160.921 217.04 195.122C217.178 195.512 217.285 196.107 217.36 196.906C217.426 197.606 217.003 198.452 216.089 199.446C215.265 200.331 213.954 200.858 212.156 201.028C210.457 201.189 208.971 200.927 207.696 200.241C206.412 199.455 205.48 198.132 204.901 196.272C204.312 194.312 203.198 190.536 201.56 184.945C197.96 172.484 195.737 166.041 194.891 165.617C193.626 165.031 189.558 164.66 182.688 164.505C175.919 164.339 171.435 164.361 169.237 164.569C167.039 164.777 165.759 165.1 165.397 165.537C163.75 167.306 162.452 179.677 161.503 202.65C161.283 204.586 159.475 205.715 156.078 206.037C152.681 206.359 150.845 205.071 150.571 202.174C149.889 194.98 151.236 180.992 154.61 160.208C157.984 139.425 161.108 125.571 163.98 118.645C167.572 109.736 171.866 105.046 176.861 104.572ZM177.837 121.264C176.338 121.406 174.162 126.098 171.307 135.34C168.443 144.483 167.111 150.103 167.309 152.201C167.357 152.701 167.49 153.041 167.709 153.222C168.584 153.945 171.797 154.347 177.349 154.426C182.901 154.505 186.576 154.459 188.374 154.289C190.173 154.118 191.162 153.924 191.343 153.705C191.515 153.386 191.539 152.578 191.416 151.279C191.283 149.88 189.414 144.513 185.808 135.177C182.193 125.741 179.536 121.103 177.837 121.264ZM280.722 123.919C287.916 123.238 294.137 126.126 299.386 132.585C304.735 139.034 307.868 147.104 308.786 156.796C309.694 166.387 308.072 174.807 303.92 182.055C299.868 189.294 293.895 193.287 286.002 194.034C278.209 194.772 271.588 191.922 266.14 185.482C260.682 178.942 257.55 171.426 256.746 162.934C255.715 152.044 257.09 143.143 260.871 136.233C264.913 128.894 271.531 124.79 280.722 123.919ZM280.088 136.378C275.892 136.776 272.653 139.3 270.372 143.952C268.091 148.603 267.182 153.377 267.645 158.273C268.365 165.866 270.412 171.519 273.788 175.231C277.164 178.944 280.75 180.62 284.547 180.261C291.34 179.617 295.407 176.258 296.747 170.184C297.282 167.311 297.35 163.776 296.953 159.58C295.401 143.194 289.779 135.461 280.088 136.378ZM338.515 166.833L340.127 182.255C340.297 184.053 339.604 185.782 338.047 187.442C336.591 189.092 335.063 189.992 333.465 190.144C331.167 190.361 329.548 188.7 328.608 185.16C328.432 184.37 327.342 177.115 325.336 163.393C323.322 149.572 320.941 138.81 318.196 131.106C316.937 127.394 316.274 125.189 316.208 124.49C315.896 121.193 317.738 119.355 321.734 118.976C323.433 118.815 324.843 119.337 325.965 120.541C327.087 121.746 327.815 123.038 328.147 124.417C328.57 125.688 328.99 127.463 329.407 129.742C329.825 132.021 330.112 133.455 330.268 134.045C331.893 128.851 334.686 124.806 338.645 121.911C342.605 119.016 347.083 117.332 352.078 116.859C360.271 116.083 364.566 117.793 364.963 121.989C365.162 124.087 364.574 125.857 363.198 127.297C361.913 128.629 360.321 129.384 358.423 129.564C349.93 130.368 344.191 133.634 341.205 139.36C338.219 145.087 337.323 154.244 338.515 166.833ZM461.844 78.0349C462.787 77.3408 464.057 76.9181 465.656 76.7667C467.254 76.6153 468.769 77.1774 470.201 78.4532C471.622 79.629 472.418 81.1161 472.589 82.9145C476.289 121.98 478.676 145.594 479.752 153.758C480.918 161.813 481.511 165.941 481.53 166.141C481.738 168.339 481.337 170.493 480.327 172.605C479.308 174.617 478.049 175.694 476.551 175.836C475.152 175.968 474.048 176.023 473.24 175.998C472.521 175.865 471.853 175.726 471.234 175.583C470.616 175.44 469.979 175.097 469.323 174.555L467.682 173.198C467.244 172.836 466.624 172.139 465.82 171.106C465.107 169.964 464.518 169.062 464.052 168.401C463.586 167.739 462.823 166.602 461.763 164.988C460.794 163.266 458.605 159.844 455.196 154.723C451.888 149.593 448.881 144.989 446.176 140.91C436.911 127.171 428.484 116.426 420.896 108.677C423.971 141.148 425.206 163.763 424.599 176.522C424.527 178.949 422.792 180.323 419.395 180.644C417.796 180.796 416.41 180.524 415.235 179.829C414.16 179.124 413.538 177.873 413.367 176.074C413.197 174.276 412.61 164.351 411.606 146.301C410.702 128.242 410.042 117.014 409.626 112.618C409.2 108.122 408.93 105.274 408.817 104.075C408.135 96.8819 408.301 92.7835 409.315 91.7802C410.329 90.7769 411.436 90.2185 412.634 90.1049C418.13 89.5845 427.374 97.7816 440.367 114.696C442.896 117.985 447.788 124.931 455.042 135.534C462.287 146.038 466.632 152.531 468.077 155.015L460.388 92.9914C459.574 84.3991 460.06 79.4136 461.844 78.0349ZM516.986 72.3587C519.484 72.1221 521.686 73.0224 523.593 75.0596C525.5 77.0968 528.128 81.4345 531.479 88.0729C539.316 103.762 547.878 128.707 557.165 162.908C557.303 163.299 557.41 163.893 557.486 164.693C557.552 165.392 557.128 166.239 556.214 167.232C555.391 168.117 554.08 168.644 552.281 168.815C550.583 168.975 549.096 168.713 547.822 168.027C546.537 167.242 545.606 165.919 545.026 164.058C544.437 162.098 543.324 158.322 541.685 152.731C538.086 140.27 535.863 133.827 535.016 133.403C533.751 132.818 529.683 132.447 522.814 132.291C516.044 132.126 511.56 132.147 509.362 132.355C507.164 132.563 505.884 132.886 505.522 133.324C503.875 135.093 502.577 147.464 501.628 170.437C501.408 172.373 499.6 173.502 496.203 173.823C492.806 174.145 490.97 172.857 490.696 169.96C490.015 162.766 491.361 148.778 494.735 127.995C498.11 107.211 501.233 93.3568 504.105 86.4315C507.697 77.5228 511.991 72.8318 516.986 72.3587ZM517.962 89.0506C516.464 89.1925 514.287 93.8846 511.433 103.127C508.569 112.269 507.236 117.889 507.435 119.987C507.482 120.487 507.615 120.827 507.834 121.008C508.709 121.732 511.922 122.133 517.474 122.212C523.026 122.291 526.701 122.245 528.499 122.075C530.298 121.905 531.288 121.71 531.468 121.491C531.64 121.173 531.664 120.364 531.541 119.065C531.409 117.666 529.539 112.299 525.933 102.963C522.318 93.5272 519.661 88.8897 517.962 89.0506ZM583.943 129.072L583.369 121.414C583.123 118.817 582.032 116.35 580.097 114.013C578.262 111.666 573.63 104.797 566.2 93.4034C558.77 82.0103 554.984 75.5644 554.842 74.0657C554.69 72.4671 555.207 71.0069 556.393 69.6849C557.569 68.2631 558.756 67.4954 559.955 67.3818C561.254 67.2588 562.861 68.2659 564.777 70.4029C566.793 72.5306 570.813 78.2487 576.836 87.5573C582.958 96.8565 586.466 101.968 587.36 102.891C595.343 84.998 601.901 72.2801 607.033 64.7375C608.309 63.3062 609.346 62.5527 610.146 62.477C611.045 62.3918 611.704 62.4302 612.122 62.5922C614.615 63.3642 615.942 64.5994 616.102 66.2979C616.254 67.8965 615.987 69.3331 615.301 70.6077C614.615 71.8824 612.715 75.2377 609.601 80.6738C605.006 88.5687 601.12 96.4973 597.942 104.46C594.856 112.312 593.393 117.088 593.553 118.787L596.151 146.212L597.736 158.159C597.944 160.357 597.491 161.962 596.378 162.975C595.254 163.888 593.794 164.429 591.995 164.6C590.297 164.761 589.058 163.92 588.279 162.079C587.499 160.237 586.913 157.772 586.52 154.685C586.127 151.597 585.646 147.056 585.078 141.061L583.943 129.072ZM660.572 72.2172C660.345 69.8194 658.842 67.7943 656.065 66.1421C653.387 64.4803 650.75 63.7725 648.152 64.0185C645.554 64.2645 643.213 65.0911 641.129 66.4982C639.035 67.8054 637.564 69.3056 636.716 70.9988C634.297 75.2602 632.339 77.4618 630.84 77.6038C626.544 78.0107 624.197 76.116 623.8 71.9197C623.44 68.1231 625.723 64.0258 630.65 59.6278C635.566 55.1298 640.922 52.6065 646.717 52.0576C654.91 51.2817 661.721 54.0136 667.15 60.2534C670.098 63.7041 671.752 67.3277 672.112 71.1243C672.736 77.7184 670.639 84.3182 665.821 90.9238C663.77 93.7391 661.703 96.4045 659.623 98.9201C654.648 104.936 652.246 108.843 652.417 110.641C652.587 112.439 653.476 114.371 655.083 116.437C656.59 118.512 657.381 119.949 657.457 120.748C657.532 121.548 657.368 122.47 656.963 123.517C655.934 125.429 654.271 126.494 651.973 126.711C649.775 126.919 647.385 125.634 644.803 122.854C642.212 119.974 640.741 116.686 640.391 112.99C639.776 106.495 641.665 100.369 646.06 94.6099C648.121 91.8945 650.07 89.593 651.908 87.7052C658.006 80.7769 660.894 75.6142 660.572 72.2172ZM647.238 146.968C647.068 145.17 647.561 143.46 648.718 141.838C649.975 140.207 651.802 139.278 654.2 139.051C656.598 138.824 658.339 139.112 659.423 139.917C660.607 140.712 661.341 142.608 661.625 145.606C662.127 150.901 659.98 153.776 655.184 154.23C653.386 154.4 651.652 153.657 649.983 152.001C648.314 150.344 647.399 148.667 647.238 146.968Z" fill="white"/>
<path d="M370.214 311C370.214 316.68 360.748 336.644 341.673 380.92C315.19 442.388 310.951 498.256 308.556 528.303C306.243 557.316 314.709 581.5 326.14 600.575C338.683 621.507 366.227 639.816 398.655 656.066C414.165 663.838 431.084 662.85 441.267 657.185C461.158 646.119 459.138 618.962 458.664 605.122C458.45 598.84 457.244 594.121 452.97 590.736C442.803 582.684 411.549 600.547 371.462 633.463C312.959 695.207 288.003 758.2 287.028 805.013C287.945 823.429 291.732 831.002 301.37 844.541" stroke="white" stroke-width="12" stroke-linecap="round"/>
<path d="M244 827.33C247.786 827.33 254.47 829.223 264.954 834.458C270.706 837.8 277.332 842.533 285.952 850.178C294.572 857.822 304.984 868.235 315.713 878.963" stroke="white" stroke-width="12" stroke-linecap="round"/>
<path d="M315.713 878.963C315.713 877.07 315.713 875.177 317.606 868.522C319.499 861.867 323.285 850.508 327.602 841.343C331.92 832.178 336.653 825.552 344.397 815.856" stroke="white" stroke-width="12" stroke-linecap="round"/>
</svg>
