<svg width="2077" height="624" viewBox="0 0 2077 624" fill="none" xmlns="http://www.w3.org/2000/svg">
<path d="M594.896 292.678C602.212 291.058 638.005 287.768 735.701 320.358C762.316 329.236 802.39 354.69 879.083 385.746C919.057 401.932 965.497 407.079 1009.93 410.847C1054.37 414.616 1096.49 413.806 1128.32 410.958C1180.76 406.266 1214.23 390.95 1235.49 377.067C1249.59 367.861 1251.99 354.911 1253.23 345.938C1253.91 341.048 1250.42 335.345 1246.74 330.803C1243.06 326.262 1238.19 323.021 1231.23 321.352C1224.27 319.682 1215.36 319.682 1205.51 324.138C1183.29 334.181 1169.41 358.029 1161.23 380.885C1153.36 402.901 1171.64 442.971 1211.19 493.617C1231.05 519.053 1261.27 534.541 1295.71 550.203C1330.16 565.866 1370.66 578.828 1419.48 589.556C1468.3 600.285 1524.2 608.386 1575.68 613.37C1627.16 618.353 1672.53 619.973 1727.9 612.302C1783.27 604.63 1847.27 587.617 1889.96 574.802C1932.65 561.987 1952.1 553.886 1967.78 544.852C1983.47 535.817 1994.81 526.096 2006.5 516.08" stroke="white" stroke-width="12" stroke-linecap="round"/>
<path d="M1967.22 469.435C1968.84 471.056 1980.21 475.131 2001.43 481.256C2022.65 486.571 2039.98 489.075 2051.83 488.67C2057.19 488.265 2061.24 487.455 2070.33 486.62" stroke="white" stroke-width="12" stroke-linecap="round"/>
<path d="M2070.33 486.62C2070.33 487.43 2070.33 488.24 2068.3 495.544C2066.28 502.847 2062.23 516.62 2060.14 528.575C2058.05 540.531 2058.05 550.253 2058.05 560.269" stroke="white" stroke-width="12" stroke-linecap="round"/>
<path d="M53.3684 263.134L51.7787 255.621C51.1886 253.08 49.779 250.78 47.5497 248.722C45.4182 246.641 39.9113 240.45 31.029 230.149C22.1468 219.848 17.5354 213.964 17.195 212.498C16.8318 210.934 17.1495 209.417 18.148 207.949C19.1238 206.383 20.1983 205.464 21.3714 205.192C22.6422 204.897 24.3696 205.681 26.5535 207.543C28.8351 209.383 33.5809 214.515 40.7907 222.937C48.0983 231.337 52.2566 235.935 53.2657 236.731C58.7921 217.934 63.5959 204.455 67.6771 196.296C68.7507 194.707 69.6785 193.822 70.4605 193.641C71.3404 193.436 71.9985 193.387 72.4349 193.491C75.0081 193.924 76.4875 194.972 76.8734 196.633C77.2365 198.198 77.1632 199.657 76.6535 201.012C76.1438 202.366 74.7081 205.945 72.3463 211.748C68.8446 220.185 66.05 228.56 63.9623 236.875C61.9497 245.069 61.1363 249.997 61.5222 251.659L67.7522 278.494L70.9157 290.123C71.415 292.273 71.1802 293.925 70.2114 295.077C69.2199 296.131 67.8443 296.863 66.0846 297.271C64.4228 297.657 63.0829 296.989 62.0652 295.268C61.0474 293.547 60.1378 291.183 59.3365 288.175C58.5352 285.167 57.4536 280.73 56.0919 274.865L53.3684 263.134ZM96.729 237.304C95.1562 236.742 94.1768 235.63 93.791 233.968C93.4052 232.306 93.591 230.666 94.3486 229.048C91.688 219.363 89.0981 209.095 86.5788 198.244C86.6206 195.761 87.1033 193.846 88.0267 192.499C89.0479 191.128 90.6976 190.024 92.9757 189.186C106.016 186.777 120.063 183.824 135.118 180.329C139.014 180.249 141.246 181.431 141.814 183.875C142.767 187.98 139.315 191.306 131.458 193.851C129.33 194.448 126.995 195.042 124.453 195.632L114.922 197.845C113.064 198.276 107.841 199.077 99.2525 200.247C102.089 212.466 104.237 220.828 105.695 225.332C110.898 224.227 120.881 221.961 135.642 218.534C139.321 218.401 141.455 219.605 142.045 222.147C142.612 224.591 141.637 226.826 139.12 228.853C138.872 229.117 138.38 229.437 137.643 229.814L112.173 235.264C110.609 235.627 109.361 236.02 108.429 236.442L114.871 261.527C116.187 267.197 116.982 271.288 117.256 273.8L151.174 265.462C154.416 265.225 156.286 266.181 156.786 268.332C157.126 269.798 156.782 271.424 155.754 273.208C154.824 274.969 153.524 276.25 151.855 277.049L114.452 286.351C112.204 286.873 110.549 286.845 109.488 286.267C108.403 285.592 107.634 284.276 107.181 282.321C106.936 279.493 106.11 275.049 104.703 268.988L102.32 258.723L96.729 237.304ZM180.788 169.108C183.232 168.541 185.535 169.139 187.696 170.904C189.857 172.669 193.041 176.618 197.246 182.75C207.104 197.255 218.915 220.836 232.679 253.494C232.868 253.862 233.053 254.437 233.234 255.22C233.393 255.904 233.086 256.799 232.312 257.906C231.614 258.893 230.385 259.59 228.626 259.998C226.964 260.384 225.455 260.322 224.101 259.813C222.723 259.205 221.624 258.018 220.801 256.252C219.956 254.387 218.349 250.794 215.98 245.471C210.752 233.601 207.69 227.512 206.794 227.205C205.462 226.793 201.382 226.967 194.553 227.729C187.821 228.467 183.38 229.086 181.23 229.585C179.079 230.085 177.854 230.575 177.553 231.057C176.157 233.03 176.519 245.463 178.641 268.358C178.681 270.306 177.039 271.666 173.716 272.438C170.392 273.209 168.401 272.178 167.743 269.343C166.108 262.304 165.578 248.261 166.152 227.213C166.726 206.166 167.975 192.019 169.898 184.772C172.271 175.464 175.901 170.243 180.788 169.108ZM183.981 185.521C182.514 185.861 180.983 190.802 179.386 200.342C177.766 209.784 177.194 215.532 177.671 217.585C177.784 218.074 177.962 218.393 178.202 218.543C179.166 219.144 182.404 219.113 187.917 218.451C193.43 217.79 197.066 217.254 198.826 216.846C200.586 216.437 201.54 216.113 201.691 215.872C201.818 215.533 201.734 214.728 201.439 213.457C201.121 212.089 198.553 207.019 193.735 198.247C188.894 189.377 185.643 185.135 183.981 185.521ZM286.302 174.438C293.341 172.804 299.891 174.837 305.954 180.538C312.115 186.217 316.296 193.797 318.497 203.28C320.676 212.665 320.191 221.226 317.042 228.962C313.991 236.677 308.604 241.43 300.881 243.223C293.256 244.994 286.314 243.051 280.056 237.395C273.774 231.641 269.669 224.61 267.74 216.3C265.266 205.645 265.442 196.641 268.269 189.288C271.297 181.476 277.308 176.526 286.302 174.438ZM287.334 186.87C283.228 187.824 280.355 190.757 278.714 195.671C277.073 200.586 276.809 205.438 277.921 210.228C279.646 217.657 282.428 222.987 286.269 226.216C290.11 229.446 293.887 230.629 297.602 229.767C304.25 228.223 307.833 224.352 308.351 218.153C308.497 215.235 308.094 211.722 307.141 207.616C303.419 191.584 296.816 184.669 287.334 186.87ZM349.299 209.265L352.952 224.334C353.361 226.094 352.904 227.9 351.583 229.752C350.359 231.582 348.965 232.678 347.401 233.041C345.153 233.563 343.327 232.132 341.923 228.749C341.644 227.99 339.596 220.945 335.779 207.613C331.94 194.183 328.147 183.834 324.399 176.565C322.656 173.055 321.706 170.957 321.547 170.273C320.798 167.047 322.379 164.98 326.289 164.072C327.951 163.686 329.418 164.015 330.691 165.059C331.963 166.103 332.856 167.287 333.37 168.61C333.958 169.813 334.611 171.516 335.328 173.719C336.046 175.922 336.522 177.305 336.756 177.869C337.674 172.505 339.902 168.124 343.44 164.726C346.979 161.329 351.192 159.063 356.08 157.929C364.096 156.067 368.581 157.19 369.534 161.296C370.01 163.349 369.663 165.181 368.492 166.792C367.396 168.283 365.919 169.244 364.061 169.675C355.752 171.604 350.499 175.605 348.303 181.679C346.107 187.752 346.439 196.947 349.299 209.265ZM459.691 104.82C460.533 104.006 461.735 103.418 463.3 103.055C464.864 102.692 466.44 103.047 468.029 104.121C469.595 105.096 470.582 106.464 470.99 108.224C479.864 146.447 485.379 169.533 487.533 177.481C489.762 185.308 490.9 189.32 490.945 189.515C491.445 191.666 491.335 193.855 490.615 196.083C489.874 198.212 488.769 199.447 487.303 199.788C485.934 200.106 484.848 200.306 484.043 200.39C483.313 200.354 482.632 200.306 482.001 200.246C481.369 200.187 480.691 199.932 479.969 199.482L478.162 198.356C477.68 198.055 476.972 197.447 476.038 196.531C475.179 195.494 474.475 194.679 473.925 194.085C473.375 193.491 472.467 192.466 471.202 191.008C470.011 189.43 467.385 186.331 463.325 181.71C459.362 177.067 455.768 172.904 452.544 169.223C441.53 156.841 431.746 147.316 423.192 140.647C430.569 172.419 434.807 194.667 435.907 207.393C436.158 209.807 434.622 211.4 431.298 212.172C429.734 212.535 428.324 212.451 427.067 211.918C425.908 211.363 425.124 210.206 424.715 208.446C424.307 206.686 422.402 196.929 419.001 179.174C415.698 161.396 413.547 150.356 412.548 146.055C411.527 141.656 410.88 138.87 410.608 137.697C408.974 130.658 408.592 126.574 409.463 125.444C410.334 124.315 411.356 123.614 412.529 123.342C417.906 122.093 428.16 128.985 443.292 144.017C446.237 146.939 452.011 153.171 460.614 162.713C469.194 172.157 474.366 178.013 476.129 180.283L460.241 119.837C458.29 111.43 458.106 106.424 459.691 104.82ZM513.585 91.8441C516.029 91.2767 518.331 91.8754 520.492 93.6402C522.654 95.4051 525.837 99.3537 530.042 105.486C539.901 119.991 551.711 143.572 565.475 176.23C565.664 176.598 565.849 177.174 566.03 177.956C566.189 178.64 565.882 179.536 565.109 180.642C564.41 181.629 563.181 182.326 561.422 182.735C559.76 183.12 558.252 183.058 556.897 182.549C555.52 181.941 554.42 180.754 553.598 178.988C552.753 177.123 551.146 173.53 548.777 168.207C543.548 156.337 540.486 150.248 539.59 149.941C538.258 149.529 534.178 149.703 527.349 150.465C520.618 151.203 516.177 151.822 514.026 152.321C511.875 152.821 510.65 153.311 510.349 153.793C508.953 155.766 509.315 168.199 511.437 191.094C511.477 193.042 509.835 194.402 506.512 195.174C503.188 195.945 501.197 194.914 500.539 192.079C498.905 185.04 498.374 170.997 498.948 149.949C499.522 128.902 500.771 114.755 502.695 107.508C505.067 98.2003 508.697 92.9789 513.585 91.8441ZM516.777 108.257C515.311 108.597 513.779 113.538 512.182 123.078C510.562 132.52 509.99 138.268 510.467 140.321C510.58 140.81 510.758 141.129 510.999 141.279C511.962 141.88 515.2 141.849 520.713 141.187C526.226 140.526 529.862 139.991 531.622 139.582C533.382 139.173 534.337 138.849 534.487 138.608C534.614 138.269 534.53 137.464 534.235 136.194C533.917 134.825 531.349 129.755 526.531 120.983C521.69 112.113 518.439 107.871 516.777 108.257ZM587.503 139.126L585.914 131.614C585.324 129.072 583.914 126.772 581.685 124.714C579.553 122.633 574.046 116.442 565.164 106.141C556.282 95.8399 551.67 89.9562 551.33 88.4898C550.967 86.9257 551.284 85.4096 552.283 83.9414C553.259 82.3755 554.333 81.4564 555.506 81.1841C556.777 80.889 558.504 81.6728 560.688 83.5354C562.97 85.3753 567.716 90.5066 574.926 98.9294C582.233 107.329 586.392 111.927 587.401 112.723C592.927 93.9259 597.731 80.4473 601.812 72.2879C602.886 70.6993 603.813 69.8143 604.595 69.6327C605.475 69.4284 606.133 69.3787 606.57 69.4834C609.143 69.9163 610.622 70.9636 611.008 72.6255C611.371 74.1896 611.298 75.649 610.788 77.0037C610.279 78.3584 608.843 81.937 606.481 87.7397C602.98 96.1767 600.185 104.553 598.097 112.867C596.085 121.062 595.271 125.99 595.657 127.651L601.887 154.486L605.051 166.115C605.55 168.265 605.315 169.917 604.346 171.069C603.355 172.123 601.979 172.855 600.22 173.263C598.558 173.649 597.218 172.982 596.2 171.26C595.182 169.539 594.273 167.175 593.471 164.167C592.67 161.159 591.589 156.722 590.227 150.857L587.503 139.126ZM655.87 72.5644C655.325 70.2182 653.566 68.4115 650.593 67.1442C647.718 65.8542 645.01 65.5042 642.468 66.0943C639.927 66.6844 637.716 67.8157 635.838 69.4881C633.937 71.0627 632.679 72.7456 632.065 74.5366C630.236 79.0824 628.588 81.5256 627.121 81.866C622.918 82.8419 620.339 81.277 619.386 77.1712C618.524 73.4564 620.241 69.0913 624.537 64.0758C628.81 58.9626 633.781 55.7478 639.451 54.4315C647.468 52.5704 654.582 54.37 660.795 59.8304C664.177 62.8573 666.299 66.2282 667.161 69.943C668.659 76.395 667.461 83.2154 663.566 90.4042C661.908 93.4679 660.215 96.385 658.489 99.1554C654.361 105.78 652.501 109.973 652.909 111.732C653.318 113.492 654.456 115.288 656.324 117.121C658.094 118.977 659.07 120.296 659.252 121.078C659.433 121.86 659.393 122.796 659.131 123.887C658.367 125.919 656.86 127.196 654.612 127.718C652.461 128.218 649.921 127.262 646.992 124.851C644.04 122.343 642.144 119.28 641.304 115.663C639.829 109.309 640.885 102.985 644.472 96.6917C646.153 93.7257 647.778 91.1849 649.348 89.0691C654.467 81.3897 656.642 75.8881 655.87 72.5644ZM652.619 148.426C652.211 146.666 652.472 144.906 653.402 143.144C654.43 141.36 656.118 140.196 658.464 139.651C660.81 139.106 662.574 139.16 663.756 139.813C665.035 140.443 666.016 142.225 666.696 145.157C667.899 150.339 666.155 153.474 661.462 154.563C659.703 154.972 657.885 154.466 656.01 153.047C654.136 151.628 653.005 150.088 652.619 148.426Z" fill="white"/>
</svg>
